<?xml version="1.0" encoding="UTF-8"?>
<svg xmlns="http://www.w3.org/2000/svg" xmlns:xlink="http://www.w3.org/1999/xlink" xmlns:svgjs="http://svgjs.com/svgjs" version="1.1" width="70" height="70" x="0" y="0" viewBox="0 0 512.06 512.06" style="enable-background:new 0 0 512 512" xml:space="preserve" class="">
  <g>
    <g xmlns="http://www.w3.org/2000/svg">
      <path d="m256.046.035c-141.474-1.299-259.777 119.179-255.956 260.693.719 120.989 94.371 229.765 213.967 247.735 4.778 0 9.005-3.436 9.844-8.305.936-5.442-2.716-10.614-8.159-11.551-7.897-1.36-15.785-3.147-23.512-5.312l-27.469-84.55 46.697-63.462h89.178l46.697 63.462-27.528 84.73c-7.676 2.119-15.499 3.846-23.453 5.131-5.443.937-9.096 6.109-8.158 11.552s6.117 9.095 11.551 8.158c120.795-19.617 213.655-129.722 212.302-252.28 1.206-139.737-116.332-257.263-256.001-256.001zm107.44 386.918-46.697-63.462 27.54-84.762 75.671-25.398 71.912 52.244c-1.325 43.948-15.829 85.854-39.722 121.377h-88.704zm-214.88 0h-88.626c-23.951-35.76-38.455-77.839-39.9-121.305l72.011-52.317 75.67 25.397 27.54 84.762zm-128.123-146.319c2.301-40.146 15.253-77.889 35.998-110.419l22.149 68.175zm166.99-5.964 68.573-49.821 68.573 49.821-26.192 80.613h-84.762zm245.989-36.279 22.148-68.175c20.747 32.532 33.702 70.275 36 110.42zm7.696-88.417-27.406 84.358-75.669 25.397-72.036-52.337v-80.448l72.053-52.345c40.599 15.258 76.291 41.685 103.058 75.375zm-126.781-82.862-58.331 42.376-58.329-42.375c18.748-4.808 38.305-7.287 58.329-7.078 20.023-.211 39.581 2.268 58.331 7.077zm-140.383 7.488 72.052 52.344v80.448l-72.036 52.337-75.669-25.397-27.407-84.36c26.765-33.689 62.456-60.114 103.06-75.372zm-99.082 372.353h71.485l22.274 68.56c-36.66-14.381-68.811-38.472-93.759-68.56zm268.508 68.56 22.274-68.56h71.492c-25.002 29.98-57.21 53.931-93.766 68.56z" fill="#131929" data-original="#000000" style="" class=""/>
      <circle cx="256.046" cy="502.035" r="10" fill="#131929" data-original="#000000" style="" class=""/>
    </g>
  </g>
</svg>
