<?xml version="1.0" encoding="UTF-8"?>
<svg xmlns="http://www.w3.org/2000/svg" xmlns:xlink="http://www.w3.org/1999/xlink" xmlns:svgjs="http://svgjs.com/svgjs" version="1.1" width="70" height="70" x="0" y="0" viewBox="0 0 512.019 512.019" style="enable-background:new 0 0 512 512" xml:space="preserve" class="">
  <g>
    <g xmlns="http://www.w3.org/2000/svg">
      <path d="m409.684 402.155c-1.802 0-3.621-.325-5.37-1.002l-12.134-4.703c-6.56-2.542-10.508-9.43-9.388-16.375l2.951-18.293-15.387-5.964-10.149 15.504c-3.853 5.887-11.411 8.314-17.971 5.771l-12.133-4.703c-6.56-2.542-10.508-9.428-9.388-16.375l2.951-18.294-140.329-54.389-10.149 15.505c-3.853 5.885-11.41 8.313-17.971 5.771l-12.133-4.703c-6.56-2.542-10.508-9.429-9.388-16.375l2.956-18.326c-7.782-3.107-15.402-6.341-22.794-9.667l-11.84 14.604c-4.43 5.465-12.195 7.112-18.463 3.918l-11.594-5.91c-6.268-3.196-9.497-10.448-7.677-17.244l4.884-18.243c-6.567-3.853-12.725-7.736-18.393-11.611l-15.385 11.462c-5.643 4.205-13.574 3.885-18.86-.759l-9.777-8.586c-5.287-4.643-6.626-12.467-3.186-18.604l9.651-17.221c-8.791-11.537-13.218-22.936-13.218-34.105 0-13.271 4.652-24.486 13.454-32.432 7.816-7.056 18.393-10.942 29.781-10.942 4.142 0 7.5 3.358 7.5 7.5s-3.358 7.5-7.5 7.5c-14.054 0-28.235 8.773-28.235 28.375 0 15.972 14.452 34.555 41.794 53.741 15.333 10.76 34.767 21.668 56.551 31.83h198.655c4.142 0 7.5 3.358 7.5 7.5s-3.358 7.5-7.5 7.5h-163.33l218.163 84.556 14.325-7.977c20.388-11.352 23.342-31.864 19.678-45.979-3.665-14.116-16.225-30.6-39.56-30.6h-19.276c-4.142 0-7.5-3.358-7.5-7.5s3.358-7.5 7.5-7.5h19.276c26.254 0 47.48 16.419 54.078 41.831 6.597 25.411-3.961 50.083-26.899 62.854l-3.443 1.917 47.181 18.287c7.522 2.917 15.944.619 20.96-5.711 24.434-30.832 35.33-71.24 35.33-131.021 0-1.383.382-2.739 1.104-3.918l5.949-9.71c3.073-5.016.497-9.359-.365-10.571-.862-1.211-4.122-5.064-9.869-3.806l-65.751 14.431c-22.372 4.912-45.352-7.543-53.453-28.967l-7.018-18.56h-11.163c-4.142 0-7.5-3.358-7.5-7.5s3.358-7.5 7.5-7.5h5.492l-5.03-13.303c-3.231-8.544-10.578-12.697-22.459-12.697h-91.71c-4.142 0-7.5-3.358-7.5-7.5s3.358-7.5 7.5-7.5h91.71c10.465 0 29.122 2.909 36.49 22.392l7.036 18.608h61.645c4.142 0 7.5 3.358 7.5 7.5s-3.358 7.5-7.5 7.5h-55.973l5.012 13.254c5.487 14.511 21.052 22.95 36.207 19.621l65.752-14.431c9.794-2.149 19.489 1.59 25.305 9.758 5.815 8.169 6.173 18.555.936 27.105l-4.849 7.915c-.263 62.243-12.19 104.93-38.57 138.216-7.813 9.859-20.174 14.337-32.157 12.087l-10.468 15.992c-2.828 4.316-7.646 6.772-12.602 6.772zm-9.642-34.831-2.442 15.14 12.133 4.703 8.399-12.832zm-62.077-24.061-2.442 15.141 12.134 4.703 8.399-12.832zm-187.02-72.485-2.442 15.141 12.134 4.703 8.399-12.832zm-68.278-30.546-3.896 14.554 11.593 5.91 9.487-11.702c-5.925-2.875-11.665-5.801-17.184-8.762zm-58.915-41.01-7.105 12.677 9.777 8.587 11.678-8.7c-5.341-4.199-10.125-8.389-14.35-12.564zm294.165-33.359h-136c-14.272 0-26.441-4.51-35.189-13.042-7.345-7.164-11.853-16.737-13.224-27.958h-60.269c-4.142 0-7.5-3.358-7.5-7.5s3.358-7.5 7.5-7.5h130.974c4.142 0 7.5 3.358 7.5 7.5s-3.358 7.5-7.5 7.5h-55.556c2.736 16.418 14.767 26 33.264 26h136c4.142 0 7.5 3.358 7.5 7.5s-3.358 7.5-7.5 7.5zm186.583-40h-106.583c-4.142 0-7.5-3.358-7.5-7.5s3.358-7.5 7.5-7.5h106.583c4.142 0 7.5 3.358 7.5 7.5s-3.358 7.5-7.5 7.5z" fill="#131929" data-original="#000000" style=""/>
    </g>
  </g>
</svg>
