<?xml version="1.0" encoding="UTF-8"?>
<svg xmlns="http://www.w3.org/2000/svg" xmlns:xlink="http://www.w3.org/1999/xlink" xmlns:svgjs="http://svgjs.com/svgjs" version="1.1" width="70" height="70" x="0" y="0" viewBox="0 0 512 512" style="enable-background:new 0 0 70 70" xml:space="preserve" class="">
  <g>
    <g xmlns="http://www.w3.org/2000/svg" id="Out_line" data-name="Out line">
      <path d="M455.90625,340.07959,489.21289,217.957a113.30678,113.30678,0,0,0,1.7832-51.77,35.7705,35.7705,0,0,0-23.71-26.85791c-.80322-.2677-1.6167-.50073-2.436-.70935l3.58154-25.07043a77.70365,77.70365,0,0,0-10.26172-50.81641A47.0621,47.0621,0,0,0,418.01855,40a32.97411,32.97411,0,0,0-12.17871,2.33752L397.84277,30.3418A32.14284,32.14284,0,0,0,371.04492,16h-7.11621a32.20376,32.20376,0,0,0-31.96094,28.24756,48.67084,48.67084,0,0,0-7.47656-4.062,30.55915,30.55915,0,0,0-41.832,35.43652l2.86426,11.457a29.52848,29.52848,0,0,0-29.3916,1.88526q-.36768.24462-.72657.49951l9.26953,13.042c.1084-.07764.21973-.15381.332-.229a13.47266,13.47266,0,0,1,14.49707-.26124,33.10656,33.10656,0,0,1,7.97265,6.86915,8.00193,8.00193,0,0,0,5.625,2.82861l4.40625.27148a7.99959,7.99959,0,0,0,8.25293-9.92529l-7.5791-30.31738A14.55917,14.55917,0,0,1,318.11133,54.8584a32.69181,32.69181,0,0,1,19.01367,23.561A354.7765,354.7765,0,0,1,344,147.84619V168a8,8,0,0,0,16,0V147.84619a370.61437,370.61437,0,0,0-2.49609-42.875q-1.74317-14.94507-4.68946-29.69043c-.00683-.03174-.01269-.063-.01855-.09424l-4.75977-23.80029A16.20711,16.20711,0,0,1,363.92871,32h7.11621a16.17733,16.17733,0,0,1,13.48535,7.21729l8.30762,12.46148a32.96607,32.96607,0,0,0-6.833,29.32416l5.55762,22.228a88.76713,88.76713,0,0,1-6.71777,61.1914,7.99984,7.99984,0,1,0,14.31054,7.15528,104.772,104.772,0,0,0,7.92871-72.227l-5.55761-22.22852A16.99848,16.99848,0,0,1,418.01855,56a30.97876,30.97876,0,0,1,26.43067,14.96484,61.6482,61.6482,0,0,1,8.14258,40.32178l-3.852,26.96423a35.265,35.265,0,0,0-4.02588,1.07825,44.53238,44.53238,0,0,0-26.55078,24.10547l-24.87012,55.959-27.01563,27.01514a49.08627,49.08627,0,0,0-7.20556,9.159,95.8042,95.8042,0,0,1-52.08545-21.58136l-10.21485,12.31543a111.848,111.848,0,0,0,56.23633,24.67077A49.20792,49.20792,0,0,0,352,280.87793V392H302.55859L287.749,317.9502l-15.68945,3.13769,15.86816,79.34326-7.89453,86.84473A7.99992,7.99992,0,0,0,288,496H448a7.99992,7.99992,0,0,0,7.9668-8.72412L448,399.63672V356.30737A48.47989,48.47989,0,0,0,455.90625,340.07959ZM368,280.87793a32.53134,32.53134,0,0,1,9.5918-23.15576l28.06543-28.06543a7.99021,7.99021,0,0,0,1.65332-2.40772l25.47363-57.31591a28.49606,28.49606,0,0,1,16.99023-15.4253,19.689,19.689,0,0,1,25.53223,14.81739,97.23935,97.23935,0,0,1-1.5293,44.42236L440.4707,335.87012a32.74664,32.74664,0,0,1-54.748,14.53857l-8.13086-8.13086A32.53134,32.53134,0,0,1,368,319.12207Zm0,74.436,6.4082,6.40821A48.668,48.668,0,0,0,432,370.13879V392H368ZM296.76074,480l6.54492-72H432.69434l3.63623,40H320v16H437.78516l1.4541,16Z" fill="#131929" data-original="#000000" style=""/>
      <path d="M240,399.63721V369.64282l4.98926-11.64233a636.073,636.073,0,0,0,50.14648-208.77442,24.4659,24.4659,0,0,0-44.76855-15.19921l-16.39063,24.58606,6-77.99915a8.02117,8.02117,0,0,0-.13183-2.18262l-5.30762-26.53808a31.65073,31.65073,0,0,0-45.05566-22.17322,33.37241,33.37241,0,0,0-50.56934-3.94592,141.74744,141.74744,0,0,0-20.66065,26.26922,24.30244,24.30244,0,0,0-9.32275-1.21405A23.86757,23.86757,0,0,0,92.0459,59.44824a224.29252,224.29252,0,0,0-26.97,40.6203A22.33961,22.33961,0,0,0,45.49023,110.521L29.082,136.77344a86.06507,86.06507,0,0,0-10.51172,66.49072L56,352.98486v46.65235l-7.9668,87.63867A7.99992,7.99992,0,0,0,56,496H240a7.99992,7.99992,0,0,0,7.9668-8.72412Zm23.67969-256.73487a8.46567,8.46567,0,0,1,15.49121,5.25879,620.09147,620.09147,0,0,1-48.88867,203.53662l-2.2937,5.35218-2.67115-1.33557,2.65625-10.62549a373.31343,373.31343,0,0,0,5.08863-156.26081ZM34.0918,199.38379a70.07057,70.07057,0,0,1,8.55859-54.12988l9.71094-15.53711c-.29639.85553-.60205,1.70678-.88867,2.56689A67.567,67.567,0,0,0,48,153.68359V200a8,8,0,0,0,16,0V153.68359a51.57475,51.57475,0,0,1,2.65234-16.34033,207.99533,207.99533,0,0,1,37.68457-67.65137,8.006,8.006,0,0,1,5.66211-2.89843c.12378-.00843.24659-.00354.36988-.00641a142.24025,142.24025,0,0,0-12.02027,41.92486l-10.28711,82.2959a8.00024,8.00024,0,1,0,15.877,1.98438l10.28711-82.2959a126.838,126.838,0,0,1,36.001-73.60889A17.36366,17.36366,0,0,1,176.88037,39.623a48.03137,48.03137,0,0,0-11.61182,24.10113L144.1084,190.68457l15.7832,2.63086L181.05176,66.35449a31.98785,31.98785,0,0,1,13.75879-21.28027,15.65633,15.65633,0,0,1,24.03711,9.95654l5.09082,25.45606-7.915,102.89941a8.02117,8.02117,0,0,0,.13183,2.18262A357.06251,357.06251,0,0,1,212.45215,341.208l-4.21289,16.85156a7.99877,7.99877,0,0,0,4.18262,9.0957L224,372.94434V392H72V360h56V344H70.24585ZM71.30542,408h91.76733l-44.812,10.54395A39.21951,39.21951,0,0,0,95.65186,480H64.76074ZM127.25,480a23.24994,23.24994,0,0,1-5.3252-45.88184l102.94214-24.22168L231.23926,480Z" fill="#131929" data-original="#000000" style=""/>
    </g>
  </g>
</svg>
