<?xml version="1.0" encoding="UTF-8"?>
<svg xmlns="http://www.w3.org/2000/svg" xmlns:xlink="http://www.w3.org/1999/xlink" xmlns:svgjs="http://svgjs.com/svgjs" version="1.1" width="70" height="70" x="0" y="0" viewBox="0 0 512 512" style="enable-background:new 0 0 512 512" xml:space="preserve" class="">
  <g>
<g xmlns="http://www.w3.org/2000/svg">
	<g>
		<g>
			<path d="M506.725,130.889L332.997,65.695c-0.648-0.519-1.385-0.951-2.203-1.26c-6.547-2.48-13.291-4.27-20.166-5.412     c-0.224-0.046-0.448-0.08-0.672-0.106c-5.555-0.884-11.191-1.357-16.889-1.357h-73.819c-9.336,0-18.508,1.22-27.403,3.585     c-0.649,0.074-1.298,0.219-1.937,0.458l-0.74,0.277c-2.911,0.856-5.794,1.824-8.636,2.934c-0.116,0.046-0.224,0.102-0.337,0.152     c-0.663,0.25-1.278,0.576-1.834,0.971L5.275,130.889c-4.201,1.576-6.33,6.257-4.758,10.458l8.318,22.233     c0.001,0.003,0.002,0.008,0.003,0.012c0.001,0.002,0.002,0.004,0.003,0.006l34.221,91.458c1.223,3.267,4.32,5.283,7.614,5.283     c0.946,0,1.91-0.166,2.847-0.518c0.21-0.079,0.412-0.171,0.612-0.266c0.799-0.046,1.604-0.204,2.393-0.5l56.16-21.074v208.33     c0,4.49,3.638,8.129,8.129,8.129h47.369c4.49,0,8.129-3.638,8.129-8.129c0-4.49-3.638-8.129-8.129-8.129h-39.24v-98.275     l17.914,15.411c1.535,1.32,3.421,1.966,5.299,1.966c2.285,0,4.557-0.959,6.165-2.827c2.927-3.404,2.543-8.536-0.861-11.464     l-28.518-24.534v-18.113l17.914,15.411c1.535,1.32,3.421,1.966,5.299,1.966c2.285,0,4.557-0.959,6.165-2.827     c2.927-3.404,2.543-8.536-0.861-11.464L128.945,278.9v-18.113l17.914,15.411c1.535,1.32,3.421,1.966,5.299,1.966     c2.285,0,4.557-0.959,6.165-2.827c2.927-3.404,2.543-8.536-0.861-11.464l-28.518-24.534v-50.056c0-4.49-3.638-8.129-8.129-8.129     s-8.129,3.638-8.129,8.129v31.332l-57.132,21.439l-28.666-76.613l162.707-61.657c14.995,21.166,37.895,37.045,64.565,43.791     c0.655,0.165,1.323,0.248,1.993,0.248c0.669,0,1.339-0.082,1.993-0.248c26.493-6.7,49.448-22.586,64.484-43.703l162.475,61.569     l-28.666,76.612l-56.82-21.32v-31.45c0-4.49-3.638-8.129-8.129-8.129c-4.49,0-8.129,3.638-8.129,8.129v50.056l-28.518,24.534     c-3.403,2.927-3.788,8.06-0.861,11.464c1.607,1.869,3.88,2.827,6.165,2.827c1.877,0,3.764-0.647,5.299-1.966l17.914-15.411     v18.113l-28.518,24.534c-3.403,2.927-3.788,8.06-0.861,11.464c1.607,1.869,3.88,2.827,6.165,2.827     c1.877,0,3.764-0.647,5.299-1.966l17.914-15.411v18.113l-28.518,24.534c-3.403,2.927-3.788,8.06-0.861,11.464     c1.607,1.869,3.88,2.827,6.165,2.827c1.877,0,3.764-0.647,5.299-1.966l17.914-15.411v98.275H199.621     c-4.49,0-8.129,3.638-8.129,8.129c0,4.49,3.638,8.129,8.129,8.129h191.874c4.49,0,8.129-3.638,8.129-8.129V238.098l55.849,20.957     c0.788,0.296,1.592,0.454,2.39,0.5c0.201,0.094,0.402,0.186,0.612,0.266c0.939,0.351,1.901,0.518,2.847,0.518     c3.293,0,6.391-2.016,7.614-5.283l34.221-91.457c0.001-0.002,0.002-0.004,0.003-0.008c0.002-0.004,0.003-0.01,0.004-0.014     l8.318-22.229C513.055,137.146,510.926,132.464,506.725,130.889z M21.195,150.217l-2.604-6.96l159.726-59.94     c0.872,2.129,1.818,4.225,2.832,6.286L21.195,150.217z M248.03,128.669c-24.883-9.189-44.815-27.833-54.49-51.065l0.9-0.337     c1.173-0.335,2.353-0.637,3.538-0.923c8.647,21.356,27.203,38.388,50.052,46.041V128.669z M256.158,107.897     c-18.371-5.234-33.611-17.824-41.472-33.961c1.515-0.075,3.035-0.119,4.561-0.119h73.82c1.528,0,3.051,0.047,4.568,0.121     C289.794,90.108,274.676,102.632,256.158,107.897z M313.477,88.165c-0.784,0.787-1.423,1.742-1.841,2.848     c-0.034,0.088-0.055,0.177-0.086,0.264c-10.878,16.787-27.569,30.093-47.264,37.389v-6.278     c23.006-7.674,41.4-24.616,50.05-46.039c0.81,0.196,1.619,0.397,2.423,0.615l1.975,0.741     C317.227,81.309,315.465,84.799,313.477,88.165z M490.807,150.218L331.125,89.706c1.019-2.06,1.966-4.156,2.842-6.283     l159.445,59.834L490.807,150.218z" fill="#131921" data-original="#000000" style="" class=""/>
			<path d="M341.727,212.245c0-12.4-10.089-22.49-22.49-22.49c-12.4,0-22.49,10.089-22.49,22.49c0,12.4,10.089,22.49,22.49,22.49     C331.638,234.735,341.727,224.645,341.727,212.245z M313.006,212.245c0-3.437,2.795-6.232,6.232-6.232s6.232,2.795,6.232,6.232     c0,3.437-2.795,6.232-6.232,6.232S313.006,215.682,313.006,212.245z" fill="#131921" data-original="#000000" style="" class=""/>
		</g>
	</g>
</g>















</g>
</svg>
