<?xml version="1.0"?>
<svg xmlns="http://www.w3.org/2000/svg" xmlns:xlink="http://www.w3.org/1999/xlink" xmlns:svgjs="http://svgjs.com/svgjs" version="1.1" width="70" height="70" x="0" y="0" viewBox="0 0 512 512" style="enable-background:new 0 0 512 512" xml:space="preserve" class=""><g>
<g xmlns="http://www.w3.org/2000/svg">
	<g>
		<path d="M326.036,386.238c-5.525,0-10.005,4.479-10.005,10.005v0.164c0,5.526,4.48,10.005,10.005,10.005    c5.525,0,10.005-4.479,10.005-10.005v-0.164C336.041,390.717,331.561,386.238,326.036,386.238z" fill="#131929" data-original="#000000" style="" class=""/>
	</g>
</g>
<g xmlns="http://www.w3.org/2000/svg">
	<g>
		<path d="M326.035,373.018c5.525,0,10.005-4.479,10.005-10.005v-54.117c0-5.526-4.48-10.005-10.005-10.005h-140.07    c-5.525,0-10.005,4.479-10.005,10.005v140.071c0,5.526,4.48,10.005,10.005,10.005h140.07c5.525,0,10.005-4.479,10.005-10.005    v-20.51c0-5.526-4.48-10.005-10.005-10.005c-5.525,0-10.005,4.479-10.005,10.005v10.505h-120.06V318.902h120.06v44.112    C316.03,368.539,320.51,373.018,326.035,373.018z" fill="#131929" data-original="#000000" style="" class=""/>
	</g>
</g>
<g xmlns="http://www.w3.org/2000/svg">
	<g>
		<path d="M379.063,245.864h-45.526c1.801-17.816,9.343-40.25,35.219-45.06c3.773-0.701,6.813-3.499,7.823-7.201    c1.012-3.703-0.185-7.657-3.078-10.178c-3.27-2.849-6.844-5.093-10.627-6.668l-57.795-24.081    c-1.102-0.458-1.936-1.348-2.363-2.493v-11.822c7.425-5.722,12.231-14.794,12.988-24.705c0.02-0.253,0.029-0.508,0.029-0.762    v-2.46c6.51-3.556,10.936-10.466,10.936-18.391V74.563c0-7.925-4.425-14.837-10.936-18.391V44.063    C315.732,19.767,295.889,0,271.498,0H240.75c-24.464,0-44.369,19.767-44.369,44.063v12.103    c-6.531,3.559-10.974,10.488-10.974,18.435v17.401c0,7.947,4.441,14.877,10.974,18.435v2.455c0,0.254,0.01,0.509,0.029,0.762    c0.763,9.98,5.662,19.124,13.227,24.852v11.601c-0.428,1.155-1.314,2.088-2.462,2.567l-57.795,24.081    c-3.811,1.587-7.406,3.848-10.687,6.718c-2.881,2.521-4.071,6.465-3.065,10.159s4.032,6.489,7.794,7.202    c25.737,4.868,33.245,27.254,35.041,45.028h-45.525c-5.525,0-10.005,4.479-10.005,10.005v246.125    c0,5.526,4.48,10.005,10.005,10.005h246.126c5.525,0,10.005-4.479,10.005-10.005V255.869    C389.068,250.344,384.588,245.864,379.063,245.864z M169.512,190.047l45.36-18.901c7.529-3.138,12.98-9.792,14.581-17.799    c0.129-0.646,0.194-1.304,0.194-1.963v-18.436c0-3.59-1.923-6.905-5.04-8.686l-2.534-1.449c-3.068-2.143-5.266-6.147-5.682-10.351    v-9.486c0-5.526-4.48-10.005-10.005-10.005c-0.507,0-0.969-0.461-0.969-0.968v-17.4c0-0.507,0.461-0.969,0.969-0.969    c5.525,0,10.005-4.479,10.005-10.005V44.063c0-13.263,10.928-24.053,24.358-24.053h30.748c13.358,0,24.224,10.791,24.224,24.053    v19.565c0,5.526,4.48,10.005,10.005,10.005c0.486,0,0.93,0.443,0.93,0.93v17.478c0,0.486-0.443,0.929-0.93,0.929    c-5.525,0-10.005,4.479-10.005,10.005v9.489c-0.418,4.282-2.552,8.2-5.639,10.351l-2.352,1.349    c-3.109,1.783-5.027,5.094-5.027,8.678v18.647c0,0.683,0.07,1.366,0.209,2.035c1.651,7.947,7.061,14.535,14.469,17.622    l45.258,18.858c-16.74,11.012-27.077,30.494-29.203,55.86H198.56c-1.218-14.51-5.122-27.375-11.468-37.621    C182.462,200.769,176.532,194.656,169.512,190.047z M369.058,491.99H142.942V265.875h226.115V491.99z" fill="#131929" data-original="#000000" style="" class=""/>
	</g>
</g>
<g xmlns="http://www.w3.org/2000/svg">
</g>
<g xmlns="http://www.w3.org/2000/svg">
</g>
<g xmlns="http://www.w3.org/2000/svg">
</g>
<g xmlns="http://www.w3.org/2000/svg">
</g>
<g xmlns="http://www.w3.org/2000/svg">
</g>
<g xmlns="http://www.w3.org/2000/svg">
</g>
<g xmlns="http://www.w3.org/2000/svg">
</g>
<g xmlns="http://www.w3.org/2000/svg">
</g>
<g xmlns="http://www.w3.org/2000/svg">
</g>
<g xmlns="http://www.w3.org/2000/svg">
</g>
<g xmlns="http://www.w3.org/2000/svg">
</g>
<g xmlns="http://www.w3.org/2000/svg">
</g>
<g xmlns="http://www.w3.org/2000/svg">
</g>
<g xmlns="http://www.w3.org/2000/svg">
</g>
<g xmlns="http://www.w3.org/2000/svg">
</g>
</g></svg>
